# xmcd
#
# Track frame offsets: 
#        150
#        23507
#        45064
#        63159
#        89672
#        113390
#        133138
#        158968
#        184190
#        200443
#        226743
#        248731
#
# Disc length: 3606 seconds
#
# Revision: 0
# Processed by: cddbd v1.5.2PL0 Copyright (c) Steve Scherf et al.
# Submitted via: ExactAudioCopy v1.3
#
DISCID=8c0e140c
DTITLE=Arthur Neilson - Moan And Cry
DYEAR=2003
DGENRE=Modern Electric Blues
TTITLE0=Tried To make You Stay
TTITLE1=Sleeping In My Clothes
TTITLE2=At The Bottom Of A Glass
TTITLE3=Coming Home Baby
TTITLE4=I Just Want To See Your Flame
TTITLE5=Clarksdale Blues
TTITLE6=I'm Just Your Fool
TTITLE7=Moan and Cry
TTITLE8=Please Stay
TTITLE9=When It's Over
TTITLE10=Riding The Blue Highway
TTITLE11=You Don't Have To Go
EXTD=
EXTT0=
EXTT1=
EXTT2=
EXTT3=
EXTT4=
EXTT5=
EXTT6=
EXTT7=
EXTT8=
EXTT9=
EXTT10=
EXTT11=
PLAYORDER=
